<?xml version="1.0" standalone="no"?>
<!DOCTYPE svg PUBLIC "-//W3C//DTD SVG 20010904//EN"
 "http://www.w3.org/TR/2001/REC-SVG-20010904/DTD/svg10.dtd">
<svg version="1.0" xmlns="http://www.w3.org/2000/svg"
 width="225.000000pt" height="225.000000pt" viewBox="0 0 225.000000 225.000000"
 preserveAspectRatio="xMidYMid meet">

<g transform="translate(0.000000,225.000000) scale(0.100000,-0.100000)"
fill="#000000" stroke="none">
<path d="M1594 1908 c-7 -10 -33 -170 -34 -205 0 -8 21 -5 66 10 36 13 66 25
67 28 1 2 -11 44 -28 92 -22 65 -34 87 -46 87 -10 0 -21 -5 -25 -12z"/>
<path d="M1450 1866 c-34 -13 -35 -14 -47 -92 -6 -43 -12 -93 -12 -111 -1 -32
-1 -32 32 -21 17 6 36 14 41 19 8 7 35 160 36 202 0 20 -3 20 -50 3z"/>
<path d="M1273 1808 c-31 -10 -32 -12 -43 -97 -6 -47 -13 -98 -16 -113 l-5
-27 44 15 45 15 11 82 c7 45 14 94 17 110 6 30 0 32 -53 15z"/>
<path d="M1102 1747 c-20 -6 -34 -18 -37 -31 -11 -49 -26 -189 -21 -193 3 -3
23 1 43 8 38 15 38 15 50 94 14 96 16 135 6 134 -5 -1 -23 -6 -41 -12z"/>
<path d="M924 1688 c-30 -10 -31 -11 -45 -119 -8 -60 -12 -109 -8 -109 7 0 72
21 77 25 3 3 31 186 32 208 0 9 -17 8 -56 -5z"/>
<path d="M766 1634 c-22 -8 -41 -15 -42 -17 -6 -6 -34 -210 -30 -214 2 -2 22
1 44 8 l40 11 15 112 c8 61 14 112 13 112 0 1 -19 -5 -40 -12z"/>
<path d="M570 1569 c-30 -11 -58 -23 -63 -28 -6 -6 1 -41 17 -88 l26 -78 0
-528 0 -527 603 2 602 3 3 518 2 517 -28 0 c-25 0 -32 -9 -77 -100 l-49 -100
-43 0 c-24 0 -43 2 -43 5 0 3 20 46 45 95 25 49 45 92 45 95 0 3 -19 5 -43 5
l-43 0 -49 -100 -49 -100 -43 0 c-24 0 -43 2 -43 5 0 3 20 46 45 95 25 49 45
92 45 95 0 3 -20 5 -45 5 l-45 0 -50 -100 -50 -100 -45 0 -45 0 50 100 50 100
-48 0 -48 0 -49 -100 -49 -100 -43 0 c-24 0 -43 2 -43 5 0 3 20 46 45 95 25
49 45 92 45 95 0 3 -19 5 -43 5 l-43 0 -49 -100 -49 -100 -43 0 c-24 0 -43 2
-43 5 0 3 20 46 45 95 25 49 45 92 45 95 0 3 -20 5 -45 5 l-45 0 -50 -100 -50
-100 -45 0 -45 0 50 100 50 100 -51 0 c-43 0 -50 2 -45 18 8 29 29 202 25 206
-2 2 -29 -5 -59 -15z m1040 -619 c0 -7 -158 -10 -455 -10 -297 0 -455 3 -455
10 0 7 158 10 455 10 297 0 455 -3 455 -10z m0 -170 c0 -7 -158 -10 -455 -10
-297 0 -455 3 -455 10 0 7 158 10 455 10 297 0 455 -3 455 -10z m10 -225 c0
-100 -1 -105 -22 -110 -13 -3 -221 -4 -463 -3 l-440 3 -3 108 -3 107 466 0
465 0 0 -105z"/>
<path d="M708 545 l3 -85 125 0 124 0 0 85 0 85 -127 0 -128 0 3 -85z"/>
<path d="M980 545 l0 -85 145 0 145 0 0 85 0 85 -145 0 -145 0 0 -85z"/>
<path d="M1290 545 l0 -85 155 0 155 0 0 85 0 85 -155 0 -155 0 0 -85z"/>
</g>
</svg>
